<?xml version="1.0" encoding="UTF-8" standalone="no"?>
<!DOCTYPE svg PUBLIC "-//W3C//DTD SVG 1.1//EN"
 "http://www.w3.org/Graphics/SVG/1.1/DTD/svg11.dtd">
<!-- Generated by graphviz version 14.0.5 (20251129.0259)
 -->
<!-- Title: G Pages: 1 -->
<svg width="985pt" height="851pt"
 viewBox="0.00 0.00 985.00 851.00" xmlns="http://www.w3.org/2000/svg" xmlns:xlink="http://www.w3.org/1999/xlink">
<g id="graph0" class="graph" transform="scale(1 1) rotate(0) translate(18 833.44)">
<title>G</title>
<polygon fill="white" stroke="none" points="-18,18 -18,-833.44 966.65,-833.44 966.65,18 -18,18"/>
<text xml:space="preserve" text-anchor="middle" x="474.32" y="-787.69" font-family="Arial" font-size="25.00" fill="#17365d">USE CASE &#45; HỆ THỐNG QUẢN LÝ TRANG THIẾT BỊ</text>
<g id="clust1" class="cluster">
<title>cluster_system</title>
<path fill="white" stroke="#2e74b5" stroke-width="2" d="M158.75,-77.19C158.75,-77.19 928.65,-77.19 928.65,-77.19 934.65,-77.19 940.65,-83.19 940.65,-89.19 940.65,-89.19 940.65,-758.19 940.65,-758.19 940.65,-764.19 934.65,-770.19 928.65,-770.19 928.65,-770.19 158.75,-770.19 158.75,-770.19 152.75,-770.19 146.75,-764.19 146.75,-758.19 146.75,-758.19 146.75,-89.19 146.75,-89.19 146.75,-83.19 152.75,-77.19 158.75,-77.19"/>
<text xml:space="preserve" text-anchor="middle" x="543.7" y="-742.44" font-family="Arial" font-size="25.00" fill="#17365d">HỆ THỐNG QUẢN LÝ TRANG THIẾT BỊ</text>
</g>
<!-- actor -->
<g id="node1" class="node">
<title>actor</title>
<text xml:space="preserve" text-anchor="start" x="36.38" y="-341.41" font-family="Arial" font-size="32.00">◯</text>
<text xml:space="preserve" text-anchor="start" x="19.5" y="-309.21" font-family="Arial" font-size="28.00">╱│╲</text>
<text xml:space="preserve" text-anchor="start" x="24.38" y="-271.71" font-family="Arial" font-size="28.00">╱ ╲</text>
<text xml:space="preserve" text-anchor="start" x="12" y="-250.41" font-family="Arial" font-weight="bold" font-size="12.00">Người quản lý</text>
</g>
<!-- m1 -->
<g id="node2" class="node">
<title>m1</title>
<ellipse fill="#eaf4ee" stroke="#2e74b5" stroke-width="1.8" cx="543.7" cy="-195.19" rx="95.4" ry="25.92"/>
<text xml:space="preserve" text-anchor="middle" x="543.7" y="-198.04" font-family="Arial" font-size="12.00">M1 &#45; Thêm / sửa</text>
<text xml:space="preserve" text-anchor="middle" x="543.7" y="-183.79" font-family="Arial" font-size="12.00">hồ sơ thiết bị</text>
</g>
<!-- actor&#45;&gt;m1 -->
<g id="edge4" class="edge">
<title>actor&#45;&gt;m1</title>
<path fill="none" stroke="#64748b" stroke-width="1.5" d="M60.12,-238.74C69.23,-182.45 91.65,-106.94 146.75,-69.19 219.63,-19.24 262.33,-39.5 345.55,-69.19 401.11,-89.01 398.07,-122.26 448.3,-153.19 460.52,-160.71 474.32,-167.64 487.52,-173.6"/>
</g>
<!-- m2 -->
<g id="node3" class="node">
<title>m2</title>
<ellipse fill="#e8eef5" stroke="#2e74b5" stroke-width="1.8" cx="250.15" cy="-699.19" rx="95.4" ry="25.92"/>
<text xml:space="preserve" text-anchor="middle" x="250.15" y="-702.04" font-family="Arial" font-size="12.00">M2 &#45; Xem danh sách</text>
<text xml:space="preserve" text-anchor="middle" x="250.15" y="-687.79" font-family="Arial" font-size="12.00">và phân trang</text>
</g>
<!-- actor&#45;&gt;m2 -->
<g id="edge5" class="edge">
<title>actor&#45;&gt;m2</title>
<path fill="none" stroke="#64748b" stroke-width="1.5" d="M54.87,-379.77C59.62,-456.79 78.42,-579.46 146.75,-657.19 155.69,-667.36 167.48,-675.12 179.86,-681.01"/>
</g>
<!-- m3 -->
<g id="node4" class="node">
<title>m3</title>
<ellipse fill="#e8eef5" stroke="#2e74b5" stroke-width="1.8" cx="250.15" cy="-615.19" rx="95.4" ry="25.92"/>
<text xml:space="preserve" text-anchor="middle" x="250.15" y="-618.04" font-family="Arial" font-size="12.00">M3 &#45; Sắp xếp</text>
<text xml:space="preserve" text-anchor="middle" x="250.15" y="-603.79" font-family="Arial" font-size="12.00">5 thuật toán</text>
</g>
<!-- actor&#45;&gt;m3 -->
<g id="edge6" class="edge">
<title>actor&#45;&gt;m3</title>
<path fill="none" stroke="#64748b" stroke-width="1.5" d="M62.53,-379.73C73.13,-438.26 96.38,-520.18 146.75,-573.19 156.21,-583.15 168.38,-590.82 181,-596.7"/>
</g>
<!-- m4 -->
<g id="node5" class="node">
<title>m4</title>
<ellipse fill="#eaf4ee" stroke="#2e74b5" stroke-width="1.8" cx="250.15" cy="-531.19" rx="95.4" ry="25.92"/>
<text xml:space="preserve" text-anchor="middle" x="250.15" y="-534.04" font-family="Arial" font-size="12.00">M4 &#45; Tìm kiếm</text>
<text xml:space="preserve" text-anchor="middle" x="250.15" y="-519.79" font-family="Arial" font-size="12.00">tuần tự / nhị phân</text>
</g>
<!-- actor&#45;&gt;m4 -->
<g id="edge7" class="edge">
<title>actor&#45;&gt;m4</title>
<path fill="none" stroke="#64748b" stroke-width="1.5" d="M76.67,-379.46C91.63,-416.23 114.47,-459.61 146.75,-489.19 157.09,-498.66 169.86,-506.15 182.83,-512.01"/>
</g>
<!-- m5 -->
<g id="node6" class="node">
<title>m5</title>
<ellipse fill="#f2f1ff" stroke="#2e74b5" stroke-width="1.8" cx="250.15" cy="-447.19" rx="95.4" ry="25.92"/>
<text xml:space="preserve" text-anchor="middle" x="250.15" y="-442.91" font-family="Arial" font-size="12.00">M5 &#45; Thống kê</text>
</g>
<!-- actor&#45;&gt;m5 -->
<g id="edge8" class="edge">
<title>actor&#45;&gt;m5</title>
<path fill="none" stroke="#64748b" stroke-width="1.5" d="M105.66,-370.41C118.23,-382.99 132.26,-395.37 146.75,-405.19 159.24,-413.65 173.69,-420.87 187.74,-426.82"/>
</g>
<!-- m6 -->
<g id="node7" class="node">
<title>m6</title>
<ellipse fill="#e8eef5" stroke="#2e74b5" stroke-width="1.8" cx="250.15" cy="-363.19" rx="95.4" ry="25.92"/>
<text xml:space="preserve" text-anchor="middle" x="250.15" y="-358.91" font-family="Arial" font-size="12.00">M6 &#45; Thoát</text>
</g>
<!-- actor&#45;&gt;m6 -->
<g id="edge9" class="edge">
<title>actor&#45;&gt;m6</title>
<path fill="none" stroke="#64748b" stroke-width="1.5" d="M105.69,-323.52C128.97,-329.95 156.74,-337.63 181.62,-344.51"/>
</g>
<!-- del -->
<g id="node8" class="node">
<title>del</title>
<ellipse fill="#fff6df" stroke="#2e74b5" stroke-width="1.8" cx="543.7" cy="-111.19" rx="95.4" ry="25.92"/>
<text xml:space="preserve" text-anchor="middle" x="543.7" y="-106.91" font-family="Arial" font-size="12.00">Xóa thiết bị</text>
</g>
<!-- actor&#45;&gt;del -->
<g id="edge10" class="edge">
<title>actor&#45;&gt;del</title>
<path fill="none" stroke="#64748b" stroke-width="1.5" d="M55.01,-238.66C60.34,-172.3 80.05,-76.54 146.75,-31.19 259.84,45.71 430.38,-40.96 505.23,-86.63"/>
</g>
<!-- csv -->
<g id="node9" class="node">
<title>csv</title>
<ellipse fill="#fff6df" stroke="#2e74b5" stroke-width="1.8" cx="250.15" cy="-279.19" rx="95.4" ry="25.92"/>
<text xml:space="preserve" text-anchor="middle" x="250.15" y="-274.91" font-family="Arial" font-size="12.00">Xuất CSV</text>
</g>
<!-- actor&#45;&gt;csv -->
<g id="edge11" class="edge">
<title>actor&#45;&gt;csv</title>
<path fill="none" stroke="#64748b" stroke-width="1.5" d="M105.69,-301.23C124.11,-298.4 145.34,-295.14 165.73,-292"/>
</g>
<!-- backup -->
<g id="node10" class="node">
<title>backup</title>
<ellipse fill="#e8eef5" stroke="#2e74b5" stroke-width="1.8" cx="250.15" cy="-195.19" rx="95.4" ry="25.92"/>
<text xml:space="preserve" text-anchor="middle" x="250.15" y="-190.91" font-family="Arial" font-size="12.00">Sao lưu JSON</text>
</g>
<!-- actor&#45;&gt;backup -->
<g id="edge12" class="edge">
<title>actor&#45;&gt;backup</title>
<path fill="none" stroke="#64748b" stroke-width="1.5" d="M105.67,-265.1C118.61,-255.2 132.8,-245.26 146.75,-237.19 160.39,-229.3 175.8,-222.15 190.44,-216.09"/>
</g>
<!-- restore -->
<g id="node11" class="node">
<title>restore</title>
<ellipse fill="#eaf4ee" stroke="#2e74b5" stroke-width="1.8" cx="250.15" cy="-111.19" rx="95.4" ry="25.92"/>
<text xml:space="preserve" text-anchor="middle" x="250.15" y="-106.91" font-family="Arial" font-size="12.00">Khôi phục JSON</text>
</g>
<!-- actor&#45;&gt;restore -->
<g id="edge13" class="edge">
<title>actor&#45;&gt;restore</title>
<path fill="none" stroke="#64748b" stroke-width="1.5" d="M83.39,-238.92C98.71,-209.27 119.89,-176.34 146.75,-153.19 157.52,-143.9 170.62,-136.48 183.8,-130.61"/>
</g>
<!-- validate -->
<g id="node12" class="node">
<title>validate</title>
<ellipse fill="#f2f1ff" stroke="#2e74b5" stroke-width="1.8" cx="543.7" cy="-310.19" rx="95.4" ry="25.92"/>
<text xml:space="preserve" text-anchor="middle" x="543.7" y="-313.04" font-family="Arial" font-size="12.00">Kiểm tra dữ liệu</text>
<text xml:space="preserve" text-anchor="middle" x="543.7" y="-298.79" font-family="Arial" font-size="12.00">và chống trùng</text>
</g>
<!-- m1&#45;&gt;validate -->
<g id="edge1" class="edge">
<title>m1&#45;&gt;validate</title>
<path fill="none" stroke="#64748b" stroke-width="1.5" stroke-dasharray="5,2" d="M543.7,-221.86C543.7,-237.25 543.7,-256.81 543.7,-273.62"/>
<polygon fill="#64748b" stroke="#64748b" stroke-width="1.5" points="540.9,-273.39 543.7,-281.39 546.5,-273.39 540.9,-273.39"/>
<text xml:space="preserve" text-anchor="middle" x="534.7" y="-249.19" font-family="Arial" font-size="10.00">&lt;&lt;include&gt;&gt;</text>
</g>
<!-- restore&#45;&gt;validate -->
<g id="edge3" class="edge">
<title>restore&#45;&gt;validate</title>
<path fill="none" stroke="#64748b" stroke-width="1.5" stroke-dasharray="5,2" d="M306.33,-132.78C319.53,-138.74 333.33,-145.66 345.55,-153.19 395.78,-184.12 402.13,-200.48 448.3,-237.19 465.86,-251.15 485.45,-266.36 502.22,-279.27"/>
<polygon fill="#64748b" stroke="#64748b" stroke-width="1.5" points="500.35,-281.36 508.4,-284.02 503.76,-276.92 500.35,-281.36"/>
<text xml:space="preserve" text-anchor="middle" x="396.92" y="-218.04" font-family="Arial" font-size="10.00">&lt;&lt;include&gt;&gt;</text>
</g>
<!-- save -->
<g id="node13" class="node">
<title>save</title>
<ellipse fill="#fff6df" stroke="#2e74b5" stroke-width="1.8" cx="837.25" cy="-310.19" rx="95.4" ry="25.92"/>
<text xml:space="preserve" text-anchor="middle" x="837.25" y="-313.04" font-family="Arial" font-size="12.00">Đọc / ghi data.json</text>
<text xml:space="preserve" text-anchor="middle" x="837.25" y="-298.79" font-family="Arial" font-size="12.00">qua tệp tạm</text>
</g>
<!-- validate&#45;&gt;save -->
<g id="edge2" class="edge">
<title>validate&#45;&gt;save</title>
<path fill="none" stroke="#64748b" stroke-width="1.5" stroke-dasharray="5,2" d="M639.76,-310.19C669.02,-310.19 701.4,-310.19 731.29,-310.19"/>
<polygon fill="#64748b" stroke="#64748b" stroke-width="1.5" points="731.05,-312.99 739.05,-310.19 731.05,-307.39 731.05,-312.99"/>
<text xml:space="preserve" text-anchor="middle" x="690.47" y="-312.69" font-family="Arial" font-size="10.00">&lt;&lt;include&gt;&gt;</text>
</g>
</g>
</svg>
