<?xml version="1.0" encoding="UTF-8" standalone="no"?>
<!DOCTYPE svg PUBLIC "-//W3C//DTD SVG 1.1//EN"
 "http://www.w3.org/Graphics/SVG/1.1/DTD/svg11.dtd">
<!-- Generated by graphviz version 14.0.5 (20251129.0259)
 -->
<!-- Title: G Pages: 1 -->
<svg width="1127pt" height="696pt"
 viewBox="0.00 0.00 1127.00 696.00" xmlns="http://www.w3.org/2000/svg" xmlns:xlink="http://www.w3.org/1999/xlink">
<g id="graph0" class="graph" transform="scale(1 1) rotate(0) translate(18 678)">
<title>G</title>
<polygon fill="white" stroke="none" points="-18,18 -18,-678 1108.77,-678 1108.77,18 -18,18"/>
<text xml:space="preserve" text-anchor="middle" x="545.39" y="-632.25" font-family="Arial" font-size="25.00" fill="#17365d">CLASS DIAGRAM &#45; CÁC LỚP CHÍNH</text>
<!-- ThietBi -->
<g id="node1" class="node">
<title>ThietBi</title>
<polygon fill="#eaf4ee" stroke="none" points="396.02,-143.25 396.02,-171.5 593.02,-171.5 593.02,-143.25 396.02,-143.25"/>
<text xml:space="preserve" text-anchor="start" x="474.27" y="-154.1" font-family="Arial" font-weight="bold" font-size="12.00">ThietBi</text>
<text xml:space="preserve" text-anchor="start" x="452.15" y="-124.85" font-family="Arial" font-size="12.00">+ MaTTB: string</text>
<text xml:space="preserve" text-anchor="start" x="451.77" y="-110.6" font-family="Arial" font-size="12.00">+ SoHieu: string</text>
<text xml:space="preserve" text-anchor="start" x="450.65" y="-96.35" font-family="Arial" font-size="12.00">+ TenTTB: string</text>
<text xml:space="preserve" text-anchor="start" x="423.27" y="-82.1" font-family="Arial" font-size="12.00">+ NgaySanXuat: DateTime</text>
<text xml:space="preserve" text-anchor="start" x="403.02" y="-67.85" font-family="Arial" font-size="12.00">+ NgayDuaVaoSuDung: DateTime</text>
<text xml:space="preserve" text-anchor="start" x="442.77" y="-53.6" font-family="Arial" font-size="12.00">+ NguonCap: string</text>
<text xml:space="preserve" text-anchor="start" x="455.9" y="-39.35" font-family="Arial" font-size="12.00">+ SoLuong: int</text>
<text xml:space="preserve" text-anchor="start" x="442.4" y="-25.1" font-family="Arial" font-size="12.00">+ ChungLoai: string</text>
<text xml:space="preserve" text-anchor="start" x="469.02" y="-10.85" font-family="Arial" font-size="12.00">+ Cap: int</text>
<polygon fill="none" stroke="#2e74b5" points="395.02,0 395.02,-172.5 594.02,-172.5 594.02,0 395.02,0"/>
</g>
<!-- MainForm -->
<g id="node2" class="node">
<title>MainForm</title>
<polygon fill="#e8eef5" stroke="none" points="363.9,-593.5 363.9,-621.75 575.15,-621.75 575.15,-593.5 363.9,-593.5"/>
<text xml:space="preserve" text-anchor="start" x="421.15" y="-604.35" font-family="Arial" font-weight="bold" font-size="12.00">MainForm : Form</text>
<text xml:space="preserve" text-anchor="start" x="397.9" y="-575.1" font-family="Arial" font-size="12.00">+ DanhSach: List&lt;ThietBi&gt;</text>
<text xml:space="preserve" text-anchor="start" x="399.77" y="-560.85" font-family="Arial" font-size="12.00">+ KhoaDaSapXep: string?</text>
<text xml:space="preserve" text-anchor="start" x="370.9" y="-546.6" font-family="Arial" font-size="12.00">+ KetQuaTimKiemM4: List&lt;ThietBi&gt;?</text>
<text xml:space="preserve" text-anchor="start" x="385.15" y="-518.35" font-family="Arial" font-size="12.00">+ LuuDuLieu(): bool</text>
<text xml:space="preserve" text-anchor="start" x="390.4" y="-504.1" font-family="Arial" font-size="12.00">+ NapLaiDuLieu()</text>
<text xml:space="preserve" text-anchor="start" x="370.9" y="-489.85" font-family="Arial" font-size="12.00">+ LuuKetQuaTimKiem(...)</text>
<text xml:space="preserve" text-anchor="start" x="379.15" y="-475.6" font-family="Arial" font-size="12.00">+ LoadUserControl(...)</text>
<text xml:space="preserve" text-anchor="start" x="391.52" y="-461.35" font-family="Arial" font-size="12.00">+ MoThemMoi(...)</text>
<polygon fill="none" stroke="#2e74b5" points="362.9,-450.5 362.9,-622.75 576.15,-622.75 576.15,-450.5 362.9,-450.5"/>
</g>
<!-- MainForm&#45;&gt;ThietBi -->
<g id="edge1" class="edge">
<title>MainForm&#45;&gt;ThietBi</title>
<path fill="none" stroke="#64748b" stroke-width="1.5" d="M362.96,-533.62C259.14,-525.29 106.27,-494.67 31.02,-390.5 -10.1,-333.58 -10.55,-289.09 31.02,-232.5 73.12,-175.19 260.93,-130.35 384.19,-106.42"/>
<polygon fill="#64748b" stroke="#64748b" stroke-width="1.5" points="384.41,-106.38 388.52,-102.33 393.84,-104.57 389.73,-108.62 384.41,-106.38"/>
<text xml:space="preserve" text-anchor="middle" x="55.77" y="-308" font-family="Arial" font-size="10.00">quản lý 0..*</text>
</g>
<!-- Them -->
<g id="node3" class="node">
<title>Them</title>
<polygon fill="#eaf4ee" stroke="none" points="97.65,-354.12 97.65,-382.38 259.4,-382.38 259.4,-354.12 97.65,-354.12"/>
<text xml:space="preserve" text-anchor="start" x="104.65" y="-364.98" font-family="Arial" font-weight="bold" font-size="12.00">UcThemMoi : UserControl</text>
<text xml:space="preserve" text-anchor="start" x="112.15" y="-335.73" font-family="Arial" font-size="12.00">&#45; mainForm: MainForm?</text>
<text xml:space="preserve" text-anchor="start" x="104.65" y="-321.48" font-family="Arial" font-size="12.00">&#45; thietBiDangSua: ThietBi?</text>
<text xml:space="preserve" text-anchor="start" x="104.65" y="-293.23" font-family="Arial" font-size="12.00">&#45; KiemTraDuLieu(): bool</text>
<text xml:space="preserve" text-anchor="start" x="109.15" y="-278.98" font-family="Arial" font-size="12.00">&#45; SaoChep(...): ThietBi</text>
<text xml:space="preserve" text-anchor="start" x="126.02" y="-264.73" font-family="Arial" font-size="12.00">&#45; GanDuLieu(...)</text>
<text xml:space="preserve" text-anchor="start" x="126.02" y="-250.47" font-family="Arial" font-size="12.00">&#45; NapDuLieu(...)</text>
<polygon fill="none" stroke="#2e74b5" points="96.65,-239.62 96.65,-383.38 260.4,-383.38 260.4,-239.62 96.65,-239.62"/>
</g>
<!-- MainForm&#45;&gt;Them -->
<g id="edge2" class="edge">
<title>MainForm&#45;&gt;Them</title>
<path fill="none" stroke="#64748b" stroke-width="1.5" d="M362.94,-456.3C334.73,-435.08 304.38,-412.05 276.52,-390.5 273.69,-388.31 270.82,-386.08 267.92,-383.82"/>
<polygon fill="#64748b" stroke="#64748b" stroke-width="1.5" points="261.65,-378.91 270.17,-381 263.51,-380.05 268.1,-383.64 267.95,-383.84 267.79,-384.04 263.2,-380.45 265.73,-386.68 261.65,-378.91"/>
<text xml:space="preserve" text-anchor="middle" x="354.89" y="-417" font-family="Arial" font-size="10.00">tạo / điều hướng</text>
</g>
<!-- DanhSach -->
<g id="node4" class="node">
<title>DanhSach</title>
<polygon fill="#fff6df" stroke="none" points="293.9,-354.12 293.9,-382.38 487.15,-382.38 487.15,-354.12 293.9,-354.12"/>
<text xml:space="preserve" text-anchor="start" x="312.9" y="-364.98" font-family="Arial" font-weight="bold" font-size="12.00">UcDanhSach : UserControl</text>
<text xml:space="preserve" text-anchor="start" x="300.9" y="-335.73" font-family="Arial" font-size="12.00">&#45; duLieuPhanTrang: List&lt;ThietBi&gt;</text>
<text xml:space="preserve" text-anchor="start" x="343.65" y="-321.48" font-family="Arial" font-size="12.00">&#45; trangHienTai: int</text>
<text xml:space="preserve" text-anchor="start" x="315.52" y="-293.23" font-family="Arial" font-size="12.00">&#45; SaoLuuDuLieu(): string</text>
<text xml:space="preserve" text-anchor="start" x="323.4" y="-278.98" font-family="Arial" font-size="12.00">&#45; KhoiPhucDuLieu(...)</text>
<text xml:space="preserve" text-anchor="start" x="300.9" y="-264.73" font-family="Arial" font-size="12.00">&#45; KiemTraDuLieuKhoiPhuc(...)</text>
<text xml:space="preserve" text-anchor="start" x="317.77" y="-250.47" font-family="Arial" font-size="12.00">&#45; XuatDanhSachCsv(...)</text>
<polygon fill="none" stroke="#2e74b5" points="292.9,-239.62 292.9,-383.38 488.15,-383.38 488.15,-239.62 292.9,-239.62"/>
</g>
<!-- MainForm&#45;&gt;DanhSach -->
<g id="edge3" class="edge">
<title>MainForm&#45;&gt;DanhSach</title>
<path fill="none" stroke="#64748b" stroke-width="1.5" d="M439.43,-450.63C432.65,-431.48 425.47,-411.21 418.77,-392.28"/>
<polygon fill="#64748b" stroke="#64748b" stroke-width="1.5" points="416.13,-384.82 422.2,-391.16 417.09,-386.79 419.04,-392.28 418.8,-392.37 418.57,-392.45 416.62,-386.96 415.41,-393.57 416.13,-384.82"/>
<text xml:space="preserve" text-anchor="middle" x="466.4" y="-417" font-family="Arial" font-size="10.00">tạo / điều hướng</text>
</g>
<!-- SapXep -->
<g id="node5" class="node">
<title>SapXep</title>
<polygon fill="#e8eef5" stroke="none" points="521.4,-361.25 521.4,-389.5 675.65,-389.5 675.65,-361.25 521.4,-361.25"/>
<text xml:space="preserve" text-anchor="start" x="528.4" y="-372.1" font-family="Arial" font-weight="bold" font-size="12.00">UcSapXep : UserControl</text>
<text xml:space="preserve" text-anchor="start" x="540.4" y="-342.85" font-family="Arial" font-size="12.00">&#45; SapXep&lt;T&gt;(...)</text>
<text xml:space="preserve" text-anchor="start" x="528.4" y="-328.6" font-family="Arial" font-size="12.00">&#45; TaoHamSoSanh(...)</text>
<text xml:space="preserve" text-anchor="start" x="528.4" y="-300.35" font-family="Arial" font-size="12.00">&#45; SelectionSort&lt;T&gt;(...)</text>
<text xml:space="preserve" text-anchor="start" x="530.65" y="-286.1" font-family="Arial" font-size="12.00">&#45; InsertionSort&lt;T&gt;(...)</text>
<text xml:space="preserve" text-anchor="start" x="534.4" y="-271.85" font-family="Arial" font-size="12.00">&#45; BubbleSort&lt;T&gt;(...)</text>
<text xml:space="preserve" text-anchor="start" x="538.15" y="-257.6" font-family="Arial" font-size="12.00">&#45; QuickSort&lt;T&gt;(...)</text>
<text xml:space="preserve" text-anchor="start" x="536.65" y="-243.35" font-family="Arial" font-size="12.00">&#45; MergeSort&lt;T&gt;(...)</text>
<polygon fill="none" stroke="#2e74b5" points="520.4,-232.5 520.4,-390.5 676.65,-390.5 676.65,-232.5 520.4,-232.5"/>
</g>
<!-- MainForm&#45;&gt;SapXep -->
<g id="edge4" class="edge">
<title>MainForm&#45;&gt;SapXep</title>
<path fill="none" stroke="#64748b" stroke-width="1.5" d="M518.66,-450.63C528.51,-433.59 538.87,-415.68 548.74,-398.6"/>
<polygon fill="#64748b" stroke="#64748b" stroke-width="1.5" points="552.63,-391.87 551.75,-400.6 551.76,-393.88 548.85,-398.93 548.63,-398.8 548.41,-398.68 551.33,-393.63 545.51,-397 552.63,-391.87"/>
<text xml:space="preserve" text-anchor="middle" x="574.27" y="-417" font-family="Arial" font-size="10.00">tạo / điều hướng</text>
</g>
<!-- TimKiem -->
<g id="node6" class="node">
<title>TimKiem</title>
<polygon fill="#eaf4ee" stroke="none" points="710.15,-361.25 710.15,-389.5 892.9,-389.5 892.9,-361.25 710.15,-361.25"/>
<text xml:space="preserve" text-anchor="start" x="729.15" y="-372.1" font-family="Arial" font-weight="bold" font-size="12.00">UcTimKiem : UserControl</text>
<text xml:space="preserve" text-anchor="start" x="717.15" y="-342.85" font-family="Arial" font-size="12.00">&#45; ketQuaTimKiem: List&lt;ThietBi&gt;</text>
<text xml:space="preserve" text-anchor="start" x="756.9" y="-328.6" font-family="Arial" font-size="12.00">&#45; HauToTimKiem</text>
<text xml:space="preserve" text-anchor="start" x="744.52" y="-300.35" font-family="Arial" font-size="12.00">&#45; TimTuanTu(...)</text>
<text xml:space="preserve" text-anchor="start" x="741.15" y="-286.1" font-family="Arial" font-size="12.00">&#45; TimNhiPhan(...)</text>
<text xml:space="preserve" text-anchor="start" x="717.15" y="-271.85" font-family="Arial" font-size="12.00">&#45; TimNhiPhanMotPhan(...)</text>
<text xml:space="preserve" text-anchor="start" x="726.52" y="-257.6" font-family="Arial" font-size="12.00">&#45; TaoChiMucHauTo(...)</text>
<text xml:space="preserve" text-anchor="start" x="745.27" y="-243.35" font-family="Arial" font-size="12.00">&#45; ChuanHoa(...)</text>
<polygon fill="none" stroke="#2e74b5" points="709.15,-232.5 709.15,-390.5 893.9,-390.5 893.9,-232.5 709.15,-232.5"/>
</g>
<!-- MainForm&#45;&gt;TimKiem -->
<g id="edge5" class="edge">
<title>MainForm&#45;&gt;TimKiem</title>
<path fill="none" stroke="#64748b" stroke-width="1.5" d="M575.94,-467.74C613.06,-443.69 654.85,-416.22 692.52,-390.5 695.43,-388.51 698.38,-386.49 701.35,-384.44"/>
<polygon fill="#64748b" stroke="#64748b" stroke-width="1.5" points="707.75,-380 703.23,-387.52 706.11,-381.44 701.32,-384.76 701.18,-384.56 701.04,-384.35 705.82,-381.03 699.13,-381.6 707.75,-380"/>
<text xml:space="preserve" text-anchor="middle" x="692.81" y="-417" font-family="Arial" font-size="10.00">tạo / điều hướng</text>
</g>
<!-- ThongKe -->
<g id="node7" class="node">
<title>ThongKe</title>
<polygon fill="#f2f1ff" stroke="none" points="927.27,-354.12 927.27,-382.38 1089.77,-382.38 1089.77,-354.12 927.27,-354.12"/>
<text xml:space="preserve" text-anchor="start" x="934.27" y="-364.98" font-family="Arial" font-weight="bold" font-size="12.00">UcThongKe : UserControl</text>
<text xml:space="preserve" text-anchor="start" x="953.77" y="-335.73" font-family="Arial" font-size="12.00">+ ThongKeDong</text>
<text xml:space="preserve" text-anchor="start" x="934.27" y="-321.48" font-family="Arial" font-size="12.00">&#45; mainForm: MainForm?</text>
<text xml:space="preserve" text-anchor="start" x="954.52" y="-293.23" font-family="Arial" font-size="12.00">&#45; TongSoLoai(...)</text>
<text xml:space="preserve" text-anchor="start" x="949.27" y="-278.98" font-family="Arial" font-size="12.00">&#45; TongSoLuong(...)</text>
<text xml:space="preserve" text-anchor="start" x="957.9" y="-264.73" font-family="Arial" font-size="12.00">&#45; GomNhom(...)</text>
<text xml:space="preserve" text-anchor="start" x="934.27" y="-250.47" font-family="Arial" font-size="12.00">&#45; ChuyenThanhBang(...)</text>
<polygon fill="none" stroke="#2e74b5" points="926.27,-239.62 926.27,-383.38 1090.77,-383.38 1090.77,-239.62 926.27,-239.62"/>
</g>
<!-- MainForm&#45;&gt;ThongKe -->
<g id="edge6" class="edge">
<title>MainForm&#45;&gt;ThongKe</title>
<path fill="none" stroke="#64748b" stroke-width="1.5" d="M575.95,-511.65C667.78,-488.41 802.17,-448.17 909.52,-390.5 912.46,-388.92 915.39,-387.26 918.31,-385.53"/>
<polygon fill="#64748b" stroke="#64748b" stroke-width="1.5" points="924.96,-381.42 920.05,-388.69 923.25,-382.77 918.29,-385.83 918.16,-385.62 918.03,-385.41 922.98,-382.35 916.27,-382.56 924.96,-381.42"/>
<text xml:space="preserve" text-anchor="middle" x="889.5" y="-417" font-family="Arial" font-size="10.00">tạo / điều hướng</text>
</g>
<!-- Them&#45;&gt;ThietBi -->
<g id="edge7" class="edge">
<title>Them&#45;&gt;ThietBi</title>
<path fill="none" stroke="#64748b" stroke-width="1.5" d="M260.21,-244.65C265.69,-240.49 271.16,-236.41 276.52,-232.5 311.88,-206.72 351.46,-179.8 387.09,-156.24"/>
<polygon fill="#64748b" stroke="#64748b" stroke-width="1.5" points="393.58,-151.96 388.88,-159.37 391.9,-153.36 387.04,-156.57 386.9,-156.36 386.76,-156.15 391.63,-152.94 384.92,-153.36 393.58,-151.96"/>
<text xml:space="preserve" text-anchor="middle" x="347.34" y="-199" font-family="Arial" font-size="10.00">thêm / sửa</text>
</g>
<!-- DanhSach&#45;&gt;ThietBi -->
<g id="edge8" class="edge">
<title>DanhSach&#45;&gt;ThietBi</title>
<path fill="none" stroke="#64748b" stroke-width="1.5" d="M423.43,-239.86C432.14,-221.17 441.68,-200.69 450.86,-180.98"/>
<polygon fill="#64748b" stroke="#64748b" stroke-width="1.5" points="454.14,-173.94 454.02,-182.72 453.45,-176.02 450.99,-181.3 450.76,-181.2 450.53,-181.09 452.99,-175.81 447.5,-179.68 454.14,-173.94"/>
<text xml:space="preserve" text-anchor="middle" x="470.65" y="-199" font-family="Arial" font-size="10.00">hiển thị / xóa</text>
</g>
<!-- SapXep&#45;&gt;ThietBi -->
<g id="edge9" class="edge">
<title>SapXep&#45;&gt;ThietBi</title>
<path fill="none" stroke="#64748b" stroke-width="1.5" d="M562.3,-232.73C554.56,-216.12 546.31,-198.41 538.32,-181.26"/>
<polygon fill="#64748b" stroke="#64748b" stroke-width="1.5" points="534.94,-174.01 541.58,-179.74 536.09,-175.88 538.55,-181.16 538.32,-181.26 538.09,-181.37 535.63,-176.09 535.06,-182.78 534.94,-174.01"/>
<text xml:space="preserve" text-anchor="middle" x="566.89" y="-199" font-family="Arial" font-size="10.00">so sánh</text>
</g>
<!-- TimKiem&#45;&gt;ThietBi -->
<g id="edge10" class="edge">
<title>TimKiem&#45;&gt;ThietBi</title>
<path fill="none" stroke="#64748b" stroke-width="1.5" d="M709.41,-243.52C675.51,-218.86 636.81,-190.72 601.69,-165.18"/>
<polygon fill="#64748b" stroke="#64748b" stroke-width="1.5" points="595.27,-160.51 603.85,-162.3 597.17,-161.59 601.88,-165.01 601.74,-165.22 601.59,-165.42 596.88,-161.99 599.62,-168.13 595.27,-160.51"/>
<text xml:space="preserve" text-anchor="middle" x="664.35" y="-199" font-family="Arial" font-size="10.00">tìm</text>
</g>
<!-- ThongKe&#45;&gt;ThietBi -->
<g id="edge11" class="edge">
<title>ThongKe&#45;&gt;ThietBi</title>
<path fill="none" stroke="#64748b" stroke-width="1.5" d="M926.45,-242.66C920.85,-239.03 915.18,-235.61 909.52,-232.5 811.39,-178.63 689.49,-138.82 603.27,-114.63"/>
<polygon fill="#64748b" stroke="#64748b" stroke-width="1.5" points="595.75,-112.54 604.42,-111.21 597.91,-112.88 603.52,-114.44 603.46,-114.68 603.39,-114.92 597.78,-113.36 602.49,-118.15 595.75,-112.54"/>
<text xml:space="preserve" text-anchor="middle" x="875.78" y="-199" font-family="Arial" font-size="10.00">tổng hợp</text>
</g>
</g>
</svg>
