<?xml version="1.0" encoding="UTF-8" standalone="no"?>
<!DOCTYPE svg PUBLIC "-//W3C//DTD SVG 1.1//EN"
 "http://www.w3.org/Graphics/SVG/1.1/DTD/svg11.dtd">
<!-- Generated by graphviz version 14.0.5 (20251129.0259)
 -->
<!-- Title: G Pages: 1 -->
<svg width="641pt" height="1139pt"
 viewBox="0.00 0.00 641.00 1139.00" xmlns="http://www.w3.org/2000/svg" xmlns:xlink="http://www.w3.org/1999/xlink">
<g id="graph0" class="graph" transform="scale(1 1) rotate(0) translate(18 1121.45)">
<title>G</title>
<polygon fill="white" stroke="none" points="-18,18 -18,-1121.45 623.2,-1121.45 623.2,18 -18,18"/>
<text xml:space="preserve" text-anchor="middle" x="302.6" y="-1075.7" font-family="Arial" font-size="25.00" fill="#17365d">ACTIVITY DIAGRAM &#45; THÊM / CẬP NHẬT HỒ SƠ</text>
<!-- start -->
<g id="node1" class="node">
<title>start</title>
<ellipse fill="#17365d" stroke="#2e74b5" stroke-width="1.8" cx="445.6" cy="-1046.4" rx="19.8" ry="19.8"/>
</g>
<!-- input -->
<g id="node2" class="node">
<title>input</title>
<path fill="#eaf4ee" stroke="#2e74b5" stroke-width="1.8" d="M545.2,-977.6C545.2,-977.6 346,-977.6 346,-977.6 340,-977.6 334,-971.6 334,-965.6 334,-965.6 334,-950 334,-950 334,-944 340,-938 346,-938 346,-938 545.2,-938 545.2,-938 551.2,-938 557.2,-944 557.2,-950 557.2,-950 557.2,-965.6 557.2,-965.6 557.2,-971.6 551.2,-977.6 545.2,-977.6"/>
<text xml:space="preserve" text-anchor="middle" x="445.6" y="-953.52" font-family="Arial" font-size="12.00">Người dùng nhập thông tin</text>
</g>
<!-- start&#45;&gt;input -->
<g id="edge1" class="edge">
<title>start&#45;&gt;input</title>
<path fill="none" stroke="#64748b" stroke-width="1.5" d="M445.6,-1025.75C445.6,-1014.79 445.6,-1000.91 445.6,-988.63"/>
<polygon fill="#64748b" stroke="#64748b" stroke-width="1.5" points="448.4,-988.64 445.6,-980.64 442.8,-988.64 448.4,-988.64"/>
</g>
<!-- validate -->
<g id="node3" class="node">
<title>validate</title>
<path fill="#e8eef5" stroke="#2e74b5" stroke-width="1.8" d="M465.2,-889C465.2,-889 266,-889 266,-889 260,-889 254,-883 254,-877 254,-877 254,-861.4 254,-861.4 254,-855.4 260,-849.4 266,-849.4 266,-849.4 465.2,-849.4 465.2,-849.4 471.2,-849.4 477.2,-855.4 477.2,-861.4 477.2,-861.4 477.2,-877 477.2,-877 477.2,-883 471.2,-889 465.2,-889"/>
<text xml:space="preserve" text-anchor="middle" x="365.6" y="-872.05" font-family="Arial" font-size="12.00">Kiểm tra trường bắt buộc,</text>
<text xml:space="preserve" text-anchor="middle" x="365.6" y="-857.8" font-family="Arial" font-size="12.00">định dạng mã, số lượng và ngày</text>
</g>
<!-- input&#45;&gt;validate -->
<g id="edge2" class="edge">
<title>input&#45;&gt;validate</title>
<path fill="none" stroke="#64748b" stroke-width="1.5" d="M427.45,-937.15C416.5,-925.3 402.41,-910.05 390.44,-897.09"/>
<polygon fill="#64748b" stroke="#64748b" stroke-width="1.5" points="392.71,-895.42 385.22,-891.44 388.59,-899.22 392.71,-895.42"/>
</g>
<!-- valid -->
<g id="node4" class="node">
<title>valid</title>
<path fill="#fff6df" stroke="#2e74b5" stroke-width="1.8" d="M353.78,-798.3C353.78,-798.3 265.82,-782.7 265.82,-782.7 259.91,-781.65 259.91,-779.55 265.82,-778.5 265.82,-778.5 353.78,-762.9 353.78,-762.9 359.69,-761.85 371.51,-761.85 377.42,-762.9 377.42,-762.9 465.38,-778.5 465.38,-778.5 471.29,-779.55 471.29,-781.65 465.38,-782.7 465.38,-782.7 377.42,-798.3 377.42,-798.3 371.51,-799.35 359.69,-799.35 353.78,-798.3"/>
<text xml:space="preserve" text-anchor="middle" x="365.6" y="-776.32" font-family="Arial" font-size="12.00">Hợp lệ?</text>
</g>
<!-- validate&#45;&gt;valid -->
<g id="edge3" class="edge">
<title>validate&#45;&gt;valid</title>
<path fill="none" stroke="#64748b" stroke-width="1.5" d="M365.6,-848.55C365.6,-837.59 365.6,-823.71 365.6,-811.43"/>
<polygon fill="#64748b" stroke="#64748b" stroke-width="1.5" points="368.4,-811.44 365.6,-803.44 362.8,-811.44 368.4,-811.44"/>
</g>
<!-- duplicate -->
<g id="node5" class="node">
<title>duplicate</title>
<path fill="#e8eef5" stroke="#2e74b5" stroke-width="1.8" d="M399.2,-700.8C399.2,-700.8 200,-700.8 200,-700.8 194,-700.8 188,-694.8 188,-688.8 188,-688.8 188,-673.2 188,-673.2 188,-667.2 194,-661.2 200,-661.2 200,-661.2 399.2,-661.2 399.2,-661.2 405.2,-661.2 411.2,-667.2 411.2,-673.2 411.2,-673.2 411.2,-688.8 411.2,-688.8 411.2,-694.8 405.2,-700.8 399.2,-700.8"/>
<text xml:space="preserve" text-anchor="middle" x="299.6" y="-683.85" font-family="Arial" font-size="12.00">Kiểm tra trùng mã TTB</text>
<text xml:space="preserve" text-anchor="middle" x="299.6" y="-669.6" font-family="Arial" font-size="12.00">và số hiệu</text>
</g>
<!-- valid&#45;&gt;duplicate -->
<g id="edge6" class="edge">
<title>valid&#45;&gt;duplicate</title>
<path fill="none" stroke="#64748b" stroke-width="1.5" d="M353.8,-762.15C344.01,-747.68 329.91,-726.82 318.54,-710.01"/>
<polygon fill="#64748b" stroke="#64748b" stroke-width="1.5" points="320.96,-708.59 314.16,-703.53 316.32,-711.72 320.96,-708.59"/>
<text xml:space="preserve" text-anchor="middle" x="342.93" y="-727.3" font-family="Arial" font-size="10.00">Có</text>
</g>
<!-- error -->
<g id="node13" class="node">
<title>error</title>
<path fill="#fdecec" stroke="#c62828" stroke-width="1.8" d="M593.2,-501.6C593.2,-501.6 394,-501.6 394,-501.6 388,-501.6 382,-495.6 382,-489.6 382,-489.6 382,-474 382,-474 382,-468 388,-462 394,-462 394,-462 593.2,-462 593.2,-462 599.2,-462 605.2,-468 605.2,-474 605.2,-474 605.2,-489.6 605.2,-489.6 605.2,-495.6 599.2,-501.6 593.2,-501.6"/>
<text xml:space="preserve" text-anchor="middle" x="493.6" y="-484.65" font-family="Arial" font-size="12.00">Hiển thị lỗi và đưa con trỏ</text>
<text xml:space="preserve" text-anchor="middle" x="493.6" y="-470.4" font-family="Arial" font-size="12.00">về trường cần sửa</text>
</g>
<!-- valid&#45;&gt;error -->
<g id="edge4" class="edge">
<title>valid&#45;&gt;error</title>
<path fill="none" stroke="#64748b" stroke-width="1.5" d="M381.66,-763.07C395.55,-747.95 415.29,-724.42 427.6,-700.8 460.52,-637.62 479.79,-555.41 488.32,-512.24"/>
<polygon fill="#64748b" stroke="#64748b" stroke-width="1.5" points="491.02,-513 489.78,-504.62 485.52,-511.94 491.02,-513"/>
<text xml:space="preserve" text-anchor="middle" x="472.67" y="-627.7" font-family="Arial" font-size="10.00">Không</text>
</g>
<!-- dup -->
<g id="node6" class="node">
<title>dup</title>
<path fill="#fff6df" stroke="#2e74b5" stroke-width="1.8" d="M287.78,-599.1C287.78,-599.1 199.82,-583.5 199.82,-583.5 193.91,-582.45 193.91,-580.35 199.82,-579.3 199.82,-579.3 287.78,-563.7 287.78,-563.7 293.69,-562.65 305.51,-562.65 311.42,-563.7 311.42,-563.7 399.38,-579.3 399.38,-579.3 405.29,-580.35 405.29,-582.45 399.38,-583.5 399.38,-583.5 311.42,-599.1 311.42,-599.1 305.51,-600.15 293.69,-600.15 287.78,-599.1"/>
<text xml:space="preserve" text-anchor="middle" x="299.6" y="-577.12" font-family="Arial" font-size="12.00">Bị trùng?</text>
</g>
<!-- duplicate&#45;&gt;dup -->
<g id="edge7" class="edge">
<title>duplicate&#45;&gt;dup</title>
<path fill="none" stroke="#64748b" stroke-width="1.5" d="M299.6,-660.72C299.6,-646.77 299.6,-627.68 299.6,-611.83"/>
<polygon fill="#64748b" stroke="#64748b" stroke-width="1.5" points="302.4,-612.25 299.6,-604.25 296.8,-612.25 302.4,-612.25"/>
</g>
<!-- copy -->
<g id="node7" class="node">
<title>copy</title>
<path fill="#e8eef5" stroke="#2e74b5" stroke-width="1.8" d="M338.2,-501.6C338.2,-501.6 139,-501.6 139,-501.6 133,-501.6 127,-495.6 127,-489.6 127,-489.6 127,-474 127,-474 127,-468 133,-462 139,-462 139,-462 338.2,-462 338.2,-462 344.2,-462 350.2,-468 350.2,-474 350.2,-474 350.2,-489.6 350.2,-489.6 350.2,-495.6 344.2,-501.6 338.2,-501.6"/>
<text xml:space="preserve" text-anchor="middle" x="238.6" y="-484.65" font-family="Arial" font-size="12.00">Tạo thiết bị mới hoặc</text>
<text xml:space="preserve" text-anchor="middle" x="238.6" y="-470.4" font-family="Arial" font-size="12.00">sao chép dữ liệu cũ</text>
</g>
<!-- dup&#45;&gt;copy -->
<g id="edge9" class="edge">
<title>dup&#45;&gt;copy</title>
<path fill="none" stroke="#64748b" stroke-width="1.5" d="M288.69,-562.95C279.65,-548.48 266.61,-527.62 256.11,-510.81"/>
<polygon fill="#64748b" stroke="#64748b" stroke-width="1.5" points="258.7,-509.67 252.08,-504.37 253.95,-512.64 258.7,-509.67"/>
<text xml:space="preserve" text-anchor="middle" x="286.63" y="-528.1" font-family="Arial" font-size="10.00">Không</text>
</g>
<!-- dup&#45;&gt;error -->
<g id="edge8" class="edge">
<title>dup&#45;&gt;error</title>
<path fill="none" stroke="#64748b" stroke-width="1.5" d="M328.23,-566C359.03,-550.5 408.54,-525.59 445.38,-507.06"/>
<polygon fill="#64748b" stroke="#64748b" stroke-width="1.5" points="446.53,-509.61 452.42,-503.52 444.01,-504.61 446.53,-509.61"/>
<text xml:space="preserve" text-anchor="middle" x="414.59" y="-528.1" font-family="Arial" font-size="10.00">Có</text>
</g>
<!-- update -->
<g id="node8" class="node">
<title>update</title>
<path fill="#eaf4ee" stroke="#2e74b5" stroke-width="1.8" d="M338.2,-413C338.2,-413 139,-413 139,-413 133,-413 127,-407 127,-401 127,-401 127,-385.4 127,-385.4 127,-379.4 133,-373.4 139,-373.4 139,-373.4 338.2,-373.4 338.2,-373.4 344.2,-373.4 350.2,-379.4 350.2,-385.4 350.2,-385.4 350.2,-401 350.2,-401 350.2,-407 344.2,-413 338.2,-413"/>
<text xml:space="preserve" text-anchor="middle" x="238.6" y="-388.93" font-family="Arial" font-size="12.00">Cập nhật List&lt;ThietBi&gt;</text>
</g>
<!-- copy&#45;&gt;update -->
<g id="edge10" class="edge">
<title>copy&#45;&gt;update</title>
<path fill="none" stroke="#64748b" stroke-width="1.5" d="M238.6,-461.15C238.6,-450.19 238.6,-436.31 238.6,-424.03"/>
<polygon fill="#64748b" stroke="#64748b" stroke-width="1.5" points="241.4,-424.04 238.6,-416.04 235.8,-424.04 241.4,-424.04"/>
</g>
<!-- save -->
<g id="node9" class="node">
<title>save</title>
<path fill="#e8eef5" stroke="#2e74b5" stroke-width="1.8" d="M338.2,-324.4C338.2,-324.4 139,-324.4 139,-324.4 133,-324.4 127,-318.4 127,-312.4 127,-312.4 127,-296.8 127,-296.8 127,-290.8 133,-284.8 139,-284.8 139,-284.8 338.2,-284.8 338.2,-284.8 344.2,-284.8 350.2,-290.8 350.2,-296.8 350.2,-296.8 350.2,-312.4 350.2,-312.4 350.2,-318.4 344.2,-324.4 338.2,-324.4"/>
<text xml:space="preserve" text-anchor="middle" x="238.6" y="-307.45" font-family="Arial" font-size="12.00">LuuDuLieu(): ghi data.json.tmp</text>
<text xml:space="preserve" text-anchor="middle" x="238.6" y="-293.2" font-family="Arial" font-size="12.00">rồi thay data.json</text>
</g>
<!-- update&#45;&gt;save -->
<g id="edge11" class="edge">
<title>update&#45;&gt;save</title>
<path fill="none" stroke="#64748b" stroke-width="1.5" d="M238.6,-372.55C238.6,-361.59 238.6,-347.71 238.6,-335.43"/>
<polygon fill="#64748b" stroke="#64748b" stroke-width="1.5" points="241.4,-335.44 238.6,-327.44 235.8,-335.44 241.4,-335.44"/>
</g>
<!-- saved -->
<g id="node10" class="node">
<title>saved</title>
<path fill="#fff6df" stroke="#2e74b5" stroke-width="1.8" d="M226.78,-233.7C226.78,-233.7 138.82,-218.1 138.82,-218.1 132.91,-217.05 132.91,-214.95 138.82,-213.9 138.82,-213.9 226.78,-198.3 226.78,-198.3 232.69,-197.25 244.51,-197.25 250.42,-198.3 250.42,-198.3 338.38,-213.9 338.38,-213.9 344.29,-214.95 344.29,-217.05 338.38,-218.1 338.38,-218.1 250.42,-233.7 250.42,-233.7 244.51,-234.75 232.69,-234.75 226.78,-233.7"/>
<text xml:space="preserve" text-anchor="middle" x="238.6" y="-211.72" font-family="Arial" font-size="12.00">Lưu thành công?</text>
</g>
<!-- save&#45;&gt;saved -->
<g id="edge12" class="edge">
<title>save&#45;&gt;saved</title>
<path fill="none" stroke="#64748b" stroke-width="1.5" d="M238.6,-283.95C238.6,-272.99 238.6,-259.11 238.6,-246.83"/>
<polygon fill="#64748b" stroke="#64748b" stroke-width="1.5" points="241.4,-246.84 238.6,-238.84 235.8,-246.84 241.4,-246.84"/>
</g>
<!-- success -->
<g id="node11" class="node">
<title>success</title>
<path fill="#eaf4ee" stroke="#2e74b5" stroke-width="1.8" d="M211.2,-136.2C211.2,-136.2 12,-136.2 12,-136.2 6,-136.2 0,-130.2 0,-124.2 0,-124.2 0,-108.6 0,-108.6 0,-102.6 6,-96.6 12,-96.6 12,-96.6 211.2,-96.6 211.2,-96.6 217.2,-96.6 223.2,-102.6 223.2,-108.6 223.2,-108.6 223.2,-124.2 223.2,-124.2 223.2,-130.2 217.2,-136.2 211.2,-136.2"/>
<text xml:space="preserve" text-anchor="middle" x="111.6" y="-119.25" font-family="Arial" font-size="12.00">Thông báo thành công</text>
<text xml:space="preserve" text-anchor="middle" x="111.6" y="-105" font-family="Arial" font-size="12.00">và làm mới giao diện</text>
</g>
<!-- saved&#45;&gt;success -->
<g id="edge13" class="edge">
<title>saved&#45;&gt;success</title>
<path fill="none" stroke="#64748b" stroke-width="1.5" d="M217.91,-199.1C198.17,-183.93 168.09,-160.82 144.96,-143.04"/>
<polygon fill="#64748b" stroke="#64748b" stroke-width="1.5" points="146.95,-141.03 138.9,-138.38 143.54,-145.47 146.95,-141.03"/>
<text xml:space="preserve" text-anchor="middle" x="189.08" y="-162.7" font-family="Arial" font-size="10.00">Có</text>
</g>
<!-- rollback -->
<g id="node12" class="node">
<title>rollback</title>
<path fill="#fdecec" stroke="#c62828" stroke-width="1.8" d="M466.2,-136.2C466.2,-136.2 267,-136.2 267,-136.2 261,-136.2 255,-130.2 255,-124.2 255,-124.2 255,-108.6 255,-108.6 255,-102.6 261,-96.6 267,-96.6 267,-96.6 466.2,-96.6 466.2,-96.6 472.2,-96.6 478.2,-102.6 478.2,-108.6 478.2,-108.6 478.2,-124.2 478.2,-124.2 478.2,-130.2 472.2,-136.2 466.2,-136.2"/>
<text xml:space="preserve" text-anchor="middle" x="366.6" y="-119.25" font-family="Arial" font-size="12.00">Hoàn tác thêm / sửa</text>
<text xml:space="preserve" text-anchor="middle" x="366.6" y="-105" font-family="Arial" font-size="12.00">trong bộ nhớ</text>
</g>
<!-- saved&#45;&gt;rollback -->
<g id="edge15" class="edge">
<title>saved&#45;&gt;rollback</title>
<path fill="none" stroke="#64748b" stroke-width="1.5" d="M259.45,-199.1C279.35,-183.93 309.66,-160.82 332.97,-143.04"/>
<polygon fill="#64748b" stroke="#64748b" stroke-width="1.5" points="334.43,-145.45 339.1,-138.37 331.04,-141 334.43,-145.45"/>
<text xml:space="preserve" text-anchor="middle" x="324.14" y="-162.7" font-family="Arial" font-size="10.00">Không</text>
</g>
<!-- end -->
<g id="node14" class="node">
<title>end</title>
<ellipse fill="#17365d" stroke="#2e74b5" stroke-width="1.8" cx="238.6" cy="-23.8" rx="19.8" ry="19.8"/>
<ellipse fill="none" stroke="#2e74b5" stroke-width="1.8" cx="238.6" cy="-23.8" rx="23.8" ry="23.8"/>
</g>
<!-- success&#45;&gt;end -->
<g id="edge14" class="edge">
<title>success&#45;&gt;end</title>
<path fill="none" stroke="#64748b" stroke-width="1.5" d="M139.16,-95.74C160.44,-80.56 189.77,-59.64 211.05,-44.45"/>
<polygon fill="#64748b" stroke="#64748b" stroke-width="1.5" points="212.62,-46.78 217.5,-39.85 209.36,-42.22 212.62,-46.78"/>
</g>
<!-- rollback&#45;&gt;end -->
<g id="edge16" class="edge">
<title>rollback&#45;&gt;end</title>
<path fill="none" stroke="#64748b" stroke-width="1.5" d="M338.83,-95.74C317.37,-80.56 287.82,-59.64 266.36,-44.45"/>
<polygon fill="#64748b" stroke="#64748b" stroke-width="1.5" points="268,-42.18 259.85,-39.84 264.77,-46.75 268,-42.18"/>
</g>
<!-- error&#45;&gt;input -->
<g id="edge5" class="edge">
<title>error&#45;&gt;input</title>
<path fill="none" stroke="#64748b" stroke-width="1.5" d="M504.41,-502.33C514.03,-521.58 526.6,-552.14 526.6,-580.4 526.6,-870.2 526.6,-870.2 526.6,-870.2 526.6,-895.42 508.05,-916.33 488.71,-931.28"/>
<polygon fill="#64748b" stroke="#64748b" stroke-width="1.5" points="487.07,-929.01 482.26,-935.99 490.37,-933.54 487.07,-929.01"/>
<text xml:space="preserve" text-anchor="middle" x="552.48" y="-727.3" font-family="Arial" font-size="10.00">Sửa dữ liệu</text>
</g>
</g>
</svg>
