<?xml version="1.0" encoding="UTF-8" standalone="no"?>
<!DOCTYPE svg PUBLIC "-//W3C//DTD SVG 1.1//EN"
 "http://www.w3.org/Graphics/SVG/1.1/DTD/svg11.dtd">
<!-- Generated by graphviz version 14.0.5 (20251129.0259)
 -->
<!-- Title: G Pages: 1 -->
<svg width="1591pt" height="262pt"
 viewBox="0.00 0.00 1591.00 262.00" xmlns="http://www.w3.org/2000/svg" xmlns:xlink="http://www.w3.org/1999/xlink">
<g id="graph0" class="graph" transform="scale(1 1) rotate(0) translate(18 243.85)">
<title>G</title>
<polygon fill="white" stroke="none" points="-18,18 -18,-243.85 1573.4,-243.85 1573.4,18 -18,18"/>
<text xml:space="preserve" text-anchor="middle" x="777.7" y="-198.1" font-family="Arial" font-size="25.00" fill="#17365d">SEQUENCE DIAGRAM &#45; TÌM KIẾM THIẾT BỊ</text>
<!-- u -->
<g id="node1" class="node">
<title>u</title>
<path fill="#eaf4ee" stroke="#2e74b5" stroke-width="1.8" d="M146.4,-39.6C146.4,-39.6 12,-39.6 12,-39.6 6,-39.6 0,-33.6 0,-27.6 0,-27.6 0,-12 0,-12 0,-6 6,0 12,0 12,0 146.4,0 146.4,0 152.4,0 158.4,-6 158.4,-12 158.4,-12 158.4,-27.6 158.4,-27.6 158.4,-33.6 152.4,-39.6 146.4,-39.6"/>
<text xml:space="preserve" text-anchor="middle" x="79.2" y="-15.53" font-family="Arial" font-size="12.00">Người dùng</text>
</g>
<!-- ui -->
<g id="node2" class="node">
<title>ui</title>
<path fill="#e8eef5" stroke="#2e74b5" stroke-width="1.8" d="M449.4,-39.6C449.4,-39.6 315,-39.6 315,-39.6 309,-39.6 303,-33.6 303,-27.6 303,-27.6 303,-12 303,-12 303,-6 309,0 315,0 315,0 449.4,0 449.4,0 455.4,0 461.4,-6 461.4,-12 461.4,-12 461.4,-27.6 461.4,-27.6 461.4,-33.6 455.4,-39.6 449.4,-39.6"/>
<text xml:space="preserve" text-anchor="middle" x="382.2" y="-15.53" font-family="Arial" font-size="12.00">UcTimKiem</text>
</g>
<!-- u&#45;&gt;ui -->
<g id="edge1" class="edge">
<title>u&#45;&gt;ui</title>
<path fill="none" stroke="#64748b" stroke-width="1.5" d="M159.21,-19.8C200.2,-19.8 250.25,-19.8 292.54,-19.8"/>
<polygon fill="#64748b" stroke="#64748b" stroke-width="1.5" points="300.44,-19.8 292.44,-23.4 298.27,-20.05 292.44,-20.05 292.44,-19.8 292.44,-19.55 298.27,-19.55 292.44,-16.2 300.44,-19.8"/>
<text xml:space="preserve" text-anchor="middle" x="230.7" y="-37.3" font-family="Arial" font-size="10.00">1. Chọn thuật toán, khóa,</text>
<text xml:space="preserve" text-anchor="middle" x="230.7" y="-25.3" font-family="Arial" font-size="10.00">nhập từ khóa và bấm Tìm</text>
</g>
<!-- ui&#45;&gt;ui -->
<g id="edge2" class="edge">
<title>ui&#45;&gt;ui</title>
<path fill="none" stroke="#64748b" stroke-width="1.5" d="M462.17,-31.1C480.21,-30.09 493.4,-26.32 493.4,-19.8 493.4,-14.5 484.69,-11.02 471.75,-9.36"/>
<polygon fill="#64748b" stroke="#64748b" stroke-width="1.5" points="463.99,-8.66 472.28,-5.79 466.17,-8.61 471.98,-9.13 471.96,-9.38 471.93,-9.63 466.13,-9.1 471.63,-12.96 463.99,-8.66"/>
<text xml:space="preserve" text-anchor="middle" x="535.77" y="-16.3" font-family="Arial" font-size="10.00">2. Kiểm tra từ khóa</text>
</g>
<!-- main -->
<g id="node3" class="node">
<title>main</title>
<path fill="#e8eef5" stroke="#2e74b5" stroke-width="1.8" d="M1543.4,-39.6C1543.4,-39.6 1409,-39.6 1409,-39.6 1403,-39.6 1397,-33.6 1397,-27.6 1397,-27.6 1397,-12 1397,-12 1397,-6 1403,0 1409,0 1409,0 1543.4,0 1543.4,0 1549.4,0 1555.4,-6 1555.4,-12 1555.4,-12 1555.4,-27.6 1555.4,-27.6 1555.4,-33.6 1549.4,-39.6 1543.4,-39.6"/>
<text xml:space="preserve" text-anchor="middle" x="1476.2" y="-15.53" font-family="Arial" font-size="12.00">MainForm</text>
</g>
<!-- ui&#45;&gt;main -->
<g id="edge3" class="edge">
<title>ui&#45;&gt;main</title>
<path fill="none" stroke="#64748b" stroke-width="1.5" d="M412.2,-40.38C433.68,-53.82 463.89,-70.16 493.2,-77.3 537.24,-88.03 549.88,-78.39 595.2,-77.3 944.83,-68.92 1034.27,-83.79 1381.2,-39.6 1383.05,-39.36 1384.92,-39.11 1386.79,-38.85"/>
<polygon fill="#64748b" stroke="#64748b" stroke-width="1.5" points="1394.47,-37.67 1387.1,-42.44 1392.36,-38.25 1386.59,-39.13 1386.56,-38.88 1386.52,-38.63 1392.28,-37.75 1386.01,-35.32 1394.47,-37.67"/>
<text xml:space="preserve" text-anchor="middle" x="544.2" y="-78.1" font-family="Arial" font-size="10.00">3. Đọc KhoaDaSapXep</text>
</g>
<!-- ui&#45;&gt;main -->
<g id="edge7" class="edge">
<title>ui&#45;&gt;main</title>
<path fill="none" stroke="#64748b" stroke-width="1.5" d="M412.2,-40.38C433.68,-53.82 463.89,-70.16 493.2,-77.3 537.24,-88.03 549.88,-78.39 595.2,-77.3 944.83,-68.92 1034.27,-83.79 1381.2,-39.6 1383.05,-39.36 1384.92,-39.11 1386.79,-38.85"/>
<polygon fill="#64748b" stroke="#64748b" stroke-width="1.5" points="1394.47,-37.67 1387.1,-42.44 1392.36,-38.25 1386.59,-39.13 1386.56,-38.88 1386.52,-38.63 1392.28,-37.75 1386.01,-35.32 1394.47,-37.67"/>
<text xml:space="preserve" text-anchor="middle" x="544.2" y="-78.1" font-family="Arial" font-size="10.00">7. LuuKetQuaTimKiem(...)</text>
</g>
<!-- list -->
<g id="node4" class="node">
<title>list</title>
<path fill="#fff6df" stroke="#2e74b5" stroke-width="1.8" d="M1353.4,-39.6C1353.4,-39.6 1219,-39.6 1219,-39.6 1213,-39.6 1207,-33.6 1207,-27.6 1207,-27.6 1207,-12 1207,-12 1207,-6 1213,0 1219,0 1219,0 1353.4,0 1353.4,0 1359.4,0 1365.4,-6 1365.4,-12 1365.4,-12 1365.4,-27.6 1365.4,-27.6 1365.4,-33.6 1359.4,-39.6 1353.4,-39.6"/>
<text xml:space="preserve" text-anchor="middle" x="1286.2" y="-15.53" font-family="Arial" font-size="12.00">List&lt;ThietBi&gt;</text>
</g>
<!-- ui&#45;&gt;list -->
<g id="edge5" class="edge">
<title>ui&#45;&gt;list</title>
<path fill="none" stroke="#64748b" stroke-width="1.5" d="M462.16,-30.9C586.61,-47.56 834.32,-78.26 1045.7,-89.3 1102.96,-92.29 1119.58,-105.07 1174.7,-89.3 1204.26,-80.84 1233.6,-62.03 1254.76,-46.1"/>
<polygon fill="#64748b" stroke="#64748b" stroke-width="1.5" points="1261,-41.28 1256.87,-49.02 1259.44,-42.81 1254.82,-46.37 1254.67,-46.17 1254.52,-45.97 1259.13,-42.41 1252.47,-43.32 1261,-41.28"/>
<text xml:space="preserve" text-anchor="middle" x="1110.2" y="-90.1" font-family="Arial" font-size="10.00">5a. TimTuanTu(): duyệt tất cả</text>
<text xml:space="preserve" text-anchor="middle" x="1110.2" y="-78.1" font-family="Arial" font-size="10.00">hoặc</text>
<text xml:space="preserve" text-anchor="middle" x="1110.2" y="-66.1" font-family="Arial" font-size="10.00">5b. TimNhiPhan(): chia đôi</text>
</g>
<!-- grid -->
<g id="node5" class="node">
<title>grid</title>
<path fill="#f2f1ff" stroke="#2e74b5" stroke-width="1.8" d="M888.4,-39.6C888.4,-39.6 754,-39.6 754,-39.6 748,-39.6 742,-33.6 742,-27.6 742,-27.6 742,-12 742,-12 742,-6 748,0 754,0 754,0 888.4,0 888.4,0 894.4,0 900.4,-6 900.4,-12 900.4,-12 900.4,-27.6 900.4,-27.6 900.4,-33.6 894.4,-39.6 888.4,-39.6"/>
<text xml:space="preserve" text-anchor="middle" x="821.2" y="-15.53" font-family="Arial" font-size="12.00">DataGridView</text>
</g>
<!-- ui&#45;&gt;grid -->
<g id="edge9" class="edge">
<title>ui&#45;&gt;grid</title>
<path fill="none" stroke="#64748b" stroke-width="1.5" d="M462.21,-19.8C538.38,-19.8 652.8,-19.8 731.9,-19.8"/>
<polygon fill="#64748b" stroke="#64748b" stroke-width="1.5" points="739.54,-19.8 731.54,-23.4 737.37,-20.05 731.54,-20.05 731.54,-19.8 731.54,-19.55 737.37,-19.55 731.54,-16.2 739.54,-19.8"/>
<text xml:space="preserve" text-anchor="middle" x="601.7" y="-25.3" font-family="Arial" font-size="10.00">9. Phân trang và gán DataSource</text>
</g>
<!-- main&#45;&gt;ui -->
<g id="edge4" class="edge">
<title>main&#45;&gt;ui</title>
<path fill="none" stroke="#64748b" stroke-width="1.5" d="M1396.27,-37.4C1391.19,-38.23 1386.13,-38.97 1381.2,-39.6 1034.27,-83.79 944.83,-68.92 595.2,-77.3 549.88,-78.39 537.24,-88.03 493.2,-77.3 467.44,-71.02 440.99,-57.64 420.37,-45.37"/>
<polygon fill="#64748b" stroke="#64748b" stroke-width="1.5" points="413.76,-41.33 422.46,-42.43 415.74,-42.25 420.72,-45.29 420.58,-45.5 420.45,-45.71 415.48,-42.68 418.71,-48.57 413.76,-41.33"/>
<text xml:space="preserve" text-anchor="middle" x="544.2" y="-78.1" font-family="Arial" font-size="10.00">4. Trả trạng thái sắp xếp</text>
</g>
<!-- main&#45;&gt;ui -->
<g id="edge8" class="edge">
<title>main&#45;&gt;ui</title>
<path fill="none" stroke="#64748b" stroke-width="1.5" d="M1396.27,-37.4C1391.19,-38.23 1386.13,-38.97 1381.2,-39.6 1034.27,-83.79 944.83,-68.92 595.2,-77.3 549.88,-78.39 537.24,-88.03 493.2,-77.3 467.44,-71.02 440.99,-57.64 420.37,-45.37"/>
<polygon fill="#64748b" stroke="#64748b" stroke-width="1.5" points="413.76,-41.33 422.46,-42.43 415.74,-42.25 420.72,-45.29 420.58,-45.5 420.45,-45.71 415.48,-42.68 418.71,-48.57 413.76,-41.33"/>
<text xml:space="preserve" text-anchor="middle" x="544.2" y="-78.1" font-family="Arial" font-size="10.00">8. Đã lưu trạng thái M4</text>
</g>
<!-- list&#45;&gt;ui -->
<g id="edge6" class="edge">
<title>list&#45;&gt;ui</title>
<path fill="none" stroke="#64748b" stroke-width="1.5" d="M1262.45,-40.17C1241.09,-57.05 1208.03,-79.76 1174.7,-89.3 1119.58,-105.07 1102.96,-92.29 1045.7,-89.3 839.69,-78.54 599.17,-49.11 471.88,-32.2"/>
<polygon fill="#64748b" stroke="#64748b" stroke-width="1.5" points="463.97,-31.14 472.38,-28.63 466.16,-31.18 471.94,-31.95 471.9,-32.2 471.87,-32.45 466.09,-31.68 471.43,-35.77 463.97,-31.14"/>
<text xml:space="preserve" text-anchor="middle" x="1110.2" y="-78.1" font-family="Arial" font-size="10.00">6. List&lt;ThietBi&gt; kết quả</text>
</g>
<!-- grid&#45;&gt;u -->
<g id="edge10" class="edge">
<title>grid&#45;&gt;u</title>
<path fill="none" stroke="#64748b" stroke-width="1.5" d="M741.22,-33.33C598.28,-56.5 304.61,-99.24 204.32,-77.3 175.54,-71 145.47,-57.44 122.02,-45.07"/>
<polygon fill="#64748b" stroke="#64748b" stroke-width="1.5" points="114.98,-41.27 123.73,-41.9 117.01,-42.08 122.14,-44.85 122.02,-45.07 121.91,-45.29 116.78,-42.52 120.31,-48.24 114.98,-41.27"/>
<text xml:space="preserve" text-anchor="middle" x="275.2" y="-78.1" font-family="Arial" font-size="10.00">10. Hiển thị số lượng và kết quả</text>
</g>
<!-- note -->
<g id="node6" class="node">
<title>note</title>
<polygon fill="#fff6df" stroke="#2e74b5" stroke-width="1.8" points="503.82,-188.6 254.57,-188.6 254.57,-123.6 509.82,-123.6 509.82,-182.6 503.82,-188.6"/>
<polyline fill="none" stroke="#2e74b5" stroke-width="1.8" points="503.82,-188.6 503.82,-182.6"/>
<polyline fill="none" stroke="#2e74b5" stroke-width="1.8" points="509.82,-182.6 503.82,-182.6"/>
<text xml:space="preserve" text-anchor="middle" x="382.2" y="-173.2" font-family="Arial" font-size="12.00">Với khóa chuỗi:</text>
<text xml:space="preserve" text-anchor="middle" x="382.2" y="-158.95" font-family="Arial" font-size="12.00">&#45; ChuanHoa bỏ dấu, hạ chữ thường</text>
<text xml:space="preserve" text-anchor="middle" x="382.2" y="-144.7" font-family="Arial" font-size="12.00">&#45; Tìm tuần tự dùng Contains</text>
<text xml:space="preserve" text-anchor="middle" x="382.2" y="-130.45" font-family="Arial" font-size="12.00">&#45; Tìm nhị phân một phần dùng chỉ mục hậu tố</text>
</g>
<!-- note&#45;&gt;ui -->
<g id="edge11" class="edge">
<title>note&#45;&gt;ui</title>
<path fill="none" stroke="#64748b" stroke-width="1.5" stroke-dasharray="5,2" d="M382.2,-122.93C382.2,-97.17 382.2,-61.87 382.2,-40.24"/>
</g>
</g>
</svg>
