<?xml version="1.0" encoding="UTF-8" standalone="no"?>
<!DOCTYPE svg PUBLIC "-//W3C//DTD SVG 1.1//EN"
 "http://www.w3.org/Graphics/SVG/1.1/DTD/svg11.dtd">
<!-- Generated by graphviz version 14.0.5 (20251129.0259)
 -->
<!-- Title: G Pages: 1 -->
<svg width="996pt" height="601pt"
 viewBox="0.00 0.00 996.00 601.00" xmlns="http://www.w3.org/2000/svg" xmlns:xlink="http://www.w3.org/1999/xlink">
<g id="graph0" class="graph" transform="scale(1 1) rotate(0) translate(18 583.25)">
<title>G</title>
<polygon fill="white" stroke="none" points="-18,18 -18,-583.25 978,-583.25 978,18 -18,18"/>
<text xml:space="preserve" text-anchor="middle" x="480" y="-537.5" font-family="Arial" font-size="25.00" fill="#17365d">COMPONENT DIAGRAM &#45; KIẾN TRÚC ỨNG DỤNG</text>
<!-- user -->
<g id="node1" class="node">
<title>user</title>
<polygon fill="#2e74b5" stroke="none" stroke-width="1.8" points="464,-528 248,-528 248,-470.4 464,-470.4 464,-528"/>
<text xml:space="preserve" text-anchor="middle" x="356" y="-494.93" font-family="Arial" font-size="12.00">Người quản lý</text>
</g>
<!-- main -->
<g id="node2" class="node">
<title>main</title>
<polygon fill="#e8eef5" stroke="#2e74b5" stroke-width="1.8" points="464,-410.4 248,-410.4 248,-406.4 244,-406.4 244,-402.4 248,-402.4 248,-360.8 244,-360.8 244,-356.8 248,-356.8 248,-352.8 464,-352.8 464,-410.4"/>
<polyline fill="none" stroke="#2e74b5" stroke-width="1.8" points="248,-406.4 252,-406.4 252,-402.4 248,-402.4"/>
<polyline fill="none" stroke="#2e74b5" stroke-width="1.8" points="248,-360.8 252,-360.8 252,-356.8 248,-356.8"/>
<text xml:space="preserve" text-anchor="middle" x="356" y="-384.45" font-family="Arial" font-size="12.00">MainForm</text>
<text xml:space="preserve" text-anchor="middle" x="356" y="-370.2" font-family="Arial" font-size="12.00">Điều hướng và trạng thái chung</text>
</g>
<!-- user&#45;&gt;main -->
<g id="edge1" class="edge">
<title>user&#45;&gt;main</title>
<path fill="none" stroke="#64748b" stroke-width="1.5" d="M356,-470.51C356,-455.83 356,-437.54 356,-421.46"/>
<polygon fill="#64748b" stroke="#64748b" stroke-width="1.5" points="358.8,-421.54 356,-413.54 353.2,-421.54 358.8,-421.54"/>
<text xml:space="preserve" text-anchor="middle" x="373.62" y="-436.9" font-family="Arial" font-size="10.00">thao tác</text>
</g>
<!-- controls -->
<g id="node3" class="node">
<title>controls</title>
<polygon fill="#eaf4ee" stroke="#2e74b5" stroke-width="1.8" points="464,-292.8 248,-292.8 248,-288.8 244,-288.8 244,-284.8 248,-284.8 248,-243.2 244,-243.2 244,-239.2 248,-239.2 248,-235.2 464,-235.2 464,-292.8"/>
<polyline fill="none" stroke="#2e74b5" stroke-width="1.8" points="248,-288.8 252,-288.8 252,-284.8 248,-284.8"/>
<polyline fill="none" stroke="#2e74b5" stroke-width="1.8" points="248,-243.2 252,-243.2 252,-239.2 248,-239.2"/>
<text xml:space="preserve" text-anchor="middle" x="356" y="-266.85" font-family="Arial" font-size="12.00">UserControls</text>
<text xml:space="preserve" text-anchor="middle" x="356" y="-252.6" font-family="Arial" font-size="12.00">M1 · M2 · M3 · M4 · M5</text>
</g>
<!-- main&#45;&gt;controls -->
<g id="edge2" class="edge">
<title>main&#45;&gt;controls</title>
<path fill="none" stroke="#64748b" stroke-width="1.5" d="M356,-352.02C356,-337.44 356,-319.48 356,-303.67"/>
<polygon fill="#64748b" stroke="#64748b" stroke-width="1.5" points="358.8,-303.92 356,-295.92 353.2,-303.92 358.8,-303.92"/>
<text xml:space="preserve" text-anchor="middle" x="392.75" y="-319.3" font-family="Arial" font-size="10.00">LoadUserControl</text>
</g>
<!-- model -->
<g id="node4" class="node">
<title>model</title>
<polygon fill="#f2f1ff" stroke="#2e74b5" stroke-width="1.8" points="216,-175.2 0,-175.2 0,-171.2 -4,-171.2 -4,-167.2 0,-167.2 0,-125.6 -4,-125.6 -4,-121.6 0,-121.6 0,-117.6 216,-117.6 216,-175.2"/>
<polyline fill="none" stroke="#2e74b5" stroke-width="1.8" points="0,-171.2 4,-171.2 4,-167.2 0,-167.2"/>
<polyline fill="none" stroke="#2e74b5" stroke-width="1.8" points="0,-125.6 4,-125.6 4,-121.6 0,-121.6"/>
<text xml:space="preserve" text-anchor="middle" x="108" y="-149.25" font-family="Arial" font-size="12.00">Models</text>
<text xml:space="preserve" text-anchor="middle" x="108" y="-135" font-family="Arial" font-size="12.00">ThietBi</text>
</g>
<!-- main&#45;&gt;model -->
<g id="edge3" class="edge">
<title>main&#45;&gt;model</title>
<path fill="none" stroke="#64748b" stroke-width="1.5" d="M247.88,-351.99C214.76,-338.66 180.67,-319.62 156.25,-292.8 129.27,-263.16 117.33,-218.04 112.08,-185.93"/>
<polygon fill="#64748b" stroke="#64748b" stroke-width="1.5" points="114.88,-185.74 110.93,-178.24 109.34,-186.56 114.88,-185.74"/>
<text xml:space="preserve" text-anchor="middle" x="194.12" y="-260.5" font-family="Arial" font-size="10.00">giữ List&lt;ThietBi&gt;</text>
</g>
<!-- storage -->
<g id="node6" class="node">
<title>storage</title>
<polygon fill="#fff6df" stroke="#2e74b5" stroke-width="1.8" points="712,-175.2 496,-175.2 496,-171.2 492,-171.2 492,-167.2 496,-167.2 496,-125.6 492,-125.6 492,-121.6 496,-121.6 496,-117.6 712,-117.6 712,-175.2"/>
<polyline fill="none" stroke="#2e74b5" stroke-width="1.8" points="496,-171.2 500,-171.2 500,-167.2 496,-167.2"/>
<polyline fill="none" stroke="#2e74b5" stroke-width="1.8" points="496,-125.6 500,-125.6 500,-121.6 496,-121.6"/>
<text xml:space="preserve" text-anchor="middle" x="604" y="-149.25" font-family="Arial" font-size="12.00">Lưu trữ tệp</text>
<text xml:space="preserve" text-anchor="middle" x="604" y="-135" font-family="Arial" font-size="12.00">System.Text.Json · File I/O</text>
</g>
<!-- main&#45;&gt;storage -->
<g id="edge6" class="edge">
<title>main&#45;&gt;storage</title>
<path fill="none" stroke="#64748b" stroke-width="1.5" d="M403.61,-352.16C415.09,-344.86 427.16,-336.8 438,-328.8 499.62,-283.3 515.84,-270.77 564,-211.2 570.67,-202.96 577.12,-193.53 582.83,-184.51"/>
<polygon fill="#64748b" stroke="#64748b" stroke-width="1.5" points="585.05,-186.24 586.87,-177.96 580.29,-183.3 585.05,-186.24"/>
<text xml:space="preserve" text-anchor="middle" x="562.3" y="-260.5" font-family="Arial" font-size="10.00">đọc / ghi</text>
</g>
<!-- controls&#45;&gt;model -->
<g id="edge4" class="edge">
<title>controls&#45;&gt;model</title>
<path fill="none" stroke="#64748b" stroke-width="1.5" d="M294.7,-234.42C259.52,-218.03 215.22,-197.38 178.59,-180.31"/>
<polygon fill="#64748b" stroke="#64748b" stroke-width="1.5" points="179.95,-177.85 171.52,-177.01 177.58,-182.92 179.95,-177.85"/>
<text xml:space="preserve" text-anchor="middle" x="269.06" y="-201.7" font-family="Arial" font-size="10.00">đọc / thay đổi</text>
</g>
<!-- algorithms -->
<g id="node5" class="node">
<title>algorithms</title>
<polygon fill="#e8eef5" stroke="#2e74b5" stroke-width="1.8" points="464,-175.2 248,-175.2 248,-171.2 244,-171.2 244,-167.2 248,-167.2 248,-125.6 244,-125.6 244,-121.6 248,-121.6 248,-117.6 464,-117.6 464,-175.2"/>
<polyline fill="none" stroke="#2e74b5" stroke-width="1.8" points="248,-171.2 252,-171.2 252,-167.2 248,-167.2"/>
<polyline fill="none" stroke="#2e74b5" stroke-width="1.8" points="248,-125.6 252,-125.6 252,-121.6 248,-121.6"/>
<text xml:space="preserve" text-anchor="middle" x="356" y="-149.25" font-family="Arial" font-size="12.00">Thuật toán</text>
<text xml:space="preserve" text-anchor="middle" x="356" y="-135" font-family="Arial" font-size="12.00">5 sort · tuần tự · nhị phân · hậu tố</text>
</g>
<!-- controls&#45;&gt;algorithms -->
<g id="edge5" class="edge">
<title>controls&#45;&gt;algorithms</title>
<path fill="none" stroke="#64748b" stroke-width="1.5" d="M356,-234.42C356,-219.84 356,-201.88 356,-186.07"/>
<polygon fill="#64748b" stroke="#64748b" stroke-width="1.5" points="358.8,-186.32 356,-178.32 353.2,-186.32 358.8,-186.32"/>
<text xml:space="preserve" text-anchor="middle" x="362.38" y="-201.7" font-family="Arial" font-size="10.00">gọi</text>
</g>
<!-- controls&#45;&gt;storage -->
<g id="edge7" class="edge">
<title>controls&#45;&gt;storage</title>
<path fill="none" stroke="#64748b" stroke-width="1.5" d="M397.68,-234.56C416.12,-222.7 438.39,-209.36 459.5,-199.2 474.16,-192.15 490.04,-185.52 505.72,-179.51"/>
<polygon fill="#64748b" stroke="#64748b" stroke-width="1.5" points="506.3,-182.28 512.8,-176.84 504.33,-177.04 506.3,-182.28"/>
<text xml:space="preserve" text-anchor="middle" x="509.75" y="-201.7" font-family="Arial" font-size="10.00">CSV / backup / restore</text>
</g>
<!-- json -->
<g id="node7" class="node">
<title>json</title>
<polygon fill="#fff6df" stroke="#2e74b5" stroke-width="1.8" points="464,-57.6 461,-61.6 440,-61.6 437,-57.6 248,-57.6 248,0 464,0 464,-57.6"/>
<text xml:space="preserve" text-anchor="middle" x="356" y="-24.52" font-family="Arial" font-size="12.00">Data/data.json</text>
</g>
<!-- storage&#45;&gt;json -->
<g id="edge8" class="edge">
<title>storage&#45;&gt;json</title>
<path fill="none" stroke="#64748b" stroke-width="1.5" d="M542.7,-116.82C507.52,-100.43 463.22,-79.78 426.59,-62.71"/>
<polygon fill="#64748b" stroke="#64748b" stroke-width="1.5" points="427.95,-60.25 419.52,-59.41 425.58,-65.32 427.95,-60.25"/>
<text xml:space="preserve" text-anchor="middle" x="500.94" y="-84.1" font-family="Arial" font-size="10.00">JSON</text>
</g>
<!-- backup -->
<g id="node8" class="node">
<title>backup</title>
<polygon fill="#eaf4ee" stroke="#2e74b5" stroke-width="1.8" points="712,-57.6 709,-61.6 688,-61.6 685,-57.6 496,-57.6 496,0 712,0 712,-57.6"/>
<text xml:space="preserve" text-anchor="middle" x="604" y="-24.52" font-family="Arial" font-size="12.00">Data/Backup/*.json</text>
</g>
<!-- storage&#45;&gt;backup -->
<g id="edge9" class="edge">
<title>storage&#45;&gt;backup</title>
<path fill="none" stroke="#64748b" stroke-width="1.5" d="M604,-116.82C604,-102.24 604,-84.28 604,-68.47"/>
<polygon fill="#64748b" stroke="#64748b" stroke-width="1.5" points="606.8,-68.72 604,-60.72 601.2,-68.72 606.8,-68.72"/>
<text xml:space="preserve" text-anchor="middle" x="646" y="-84.1" font-family="Arial" font-size="10.00">sao lưu / khôi phục</text>
</g>
<!-- csv -->
<g id="node9" class="node">
<title>csv</title>
<polygon fill="#f2f1ff" stroke="#2e74b5" stroke-width="1.8" points="954,-57.6 744,-57.6 744,0 960,0 960,-51.6 954,-57.6"/>
<polyline fill="none" stroke="#2e74b5" stroke-width="1.8" points="954,-57.6 954,-51.6"/>
<polyline fill="none" stroke="#2e74b5" stroke-width="1.8" points="960,-51.6 954,-51.6"/>
<text xml:space="preserve" text-anchor="middle" x="852" y="-24.52" font-family="Arial" font-size="12.00">DanhSachTrangThietBi_*.csv</text>
</g>
<!-- storage&#45;&gt;csv -->
<g id="edge10" class="edge">
<title>storage&#45;&gt;csv</title>
<path fill="none" stroke="#64748b" stroke-width="1.5" d="M665.3,-116.82C700.48,-100.43 744.78,-79.78 781.41,-62.71"/>
<polygon fill="#64748b" stroke="#64748b" stroke-width="1.5" points="782.42,-65.32 788.48,-59.41 780.05,-60.25 782.42,-65.32"/>
<text xml:space="preserve" text-anchor="middle" x="744.81" y="-84.1" font-family="Arial" font-size="10.00">xuất</text>
</g>
</g>
</svg>
